<svg xmlns="http://www.w3.org/2000/svg" width="1922.189" height="1080" viewBox="0 0 1922.189 1080">
  <g id="Grupo_149" data-name="Grupo 149" transform="translate(0 1535)">
    <path id="Trazado_261" data-name="Trazado 261" d="M0-455H1922.189V-1535H0Z" fill="#c2a1f1" fill-rule="evenodd"/>
    <path id="Trazado_262" data-name="Trazado 262" d="M935.29-1252.28c-5.883,14.48-5.72,8.992-5.72,8.992-7.239-2.941-2.826-13.8-2.826-13.8,15.271-6.445,8.547,4.813,8.547,4.813m-36.941,13.171s5.373,12.728,15.157,14.592c0,0,26.809,6.677,34.955-23.753S920.3-1272.36,920.3-1272.36s-26.526,8.2-21.947,33.251" transform="translate(-266.128 -77.689)" fill="#b8e26b"/>
    <path id="Trazado_263" data-name="Trazado 263" d="M934.814-1254.355c15.271-6.445,12.665,6.332,12.665,6.332-5.883,14.48-8.443,11.257-8.443,11.257-7.239-2.941-4.222-17.589-4.222-17.589" transform="translate(-276.91 -82.649)" fill="#df5b41"/>
    <path id="Trazado_264" data-name="Trazado 264" d="M411.272-1106.414c9.078,12.721.449,14.079.449,14.079-6.36,4.538-13.17-5-13.17-5,2.731-16.344,12.721-9.076,12.721-9.076m-12.734,42.686s13.625,2.28,20.44-4.989c0,0,19.992-19.067-1.346-42.236s-35.431,10.885-35.431,10.885-7.278,26.792,16.336,36.34" transform="translate(-112.977 -123.301)" fill="#b8e26b"/>
    <path id="Trazado_265" data-name="Trazado 265" d="M405.885-1092.7c2.731-16.344,12.721-9.076,12.721-9.076,9.078,12.721.449,14.079.449,14.079-6.36,4.538-13.17-5-13.17-5" transform="translate(-120.311 -127.937)" fill="#df5b41"/>
    <path id="Trazado_266" data-name="Trazado 266" d="M730.464-1421.3c1.132-15.591,7.951.26,7.951.26,7.794.57,7.637.872,7.637.872-12.54,10.835-15.587-1.133-15.587-1.133m37.053-24.731s-9.034-10.448-18.917-9.21c0,0-27.561,1.914-25.929,33.371s34.221,14.24,34.221,14.24,22.707-15.978,10.625-38.4" transform="translate(-214.191 -23.611)" fill="#b8e26b"/>
    <path id="Trazado_267" data-name="Trazado 267" d="M748.364-1407.36c-12.54,10.835-15.587-1.133-15.587-1.133,1.132-15.591,9.358-4.665,9.358-4.665,7.794.57,6.229,5.8,6.229,5.8" transform="translate(-217.208 -35.013)" fill="#df5b41"/>
    <path id="Trazado_268" data-name="Trazado 268" d="M1100.914-1119.15c15.451,2.329,10.427,9.477,10.427,9.477-1.168,7.725-12.756,5.98-12.756,5.98-9.843-13.34,2.329-15.458,2.329-15.458m21.8,38.852s11.11-8.2,10.638-18.152c0,0,.211-27.63-31.281-28.425s-16.83,33.026-16.83,33.026,14.184,23.866,37.473,13.551" transform="translate(-320.675 -120.971)" fill="#b8e26b"/>
    <path id="Trazado_269" data-name="Trazado 269" d="M1104.021-1100.432c-9.843-13.34,2.329-15.458,2.329-15.458,15.451,2.329,10.427,9.477,10.427,9.477-1.168,7.725-12.756,5.98-12.756,5.98" transform="translate(-326.111 -124.231)" fill="#df5b41"/>
    <path id="Trazado_270" data-name="Trazado 270" d="M235.665-1240.584c-11.5-10.582-3.331-13.685-3.331-13.685,5.292-5.748,13.915,2.188,13.915,2.188.686,16.562-10.584,11.5-10.584,11.5m3.692-44.4s-13.8.577-18.98,9.083c0,0-15.648,22.768,10,41.061s32.439-17.934,32.439-17.934,1.618-27.714-23.454-32.21" transform="translate(-63.922 -74.11)" fill="#b8e26b"/>
    <path id="Trazado_271" data-name="Trazado 271" d="M252.093-1240.022c.685,16.562-10.584,11.5-10.584,11.5-11.5-10.582-3.332-13.685-3.332-13.685,5.292-5.748,13.916,2.188,13.916,2.188" transform="translate(-69.766 -86.169)" fill="#df5b41"/>
    <path id="Trazado_272" data-name="Trazado 272" d="M1120.222-1428.211c-5.882,14.48-11.651,7.922-11.651,7.922-7.24-2.948-2.828-13.8-2.828-13.8,15.268-6.445,14.48,5.882,14.48,5.882m-42.876,12.1s5.375,12.728,15.155,14.592c0,0,26.813,6.677,34.961-23.753s-28.165-24.091-28.165-24.091-26.532,8.2-21.952,33.251" transform="translate(-319.186 -25.223)" fill="#b8e26b"/>
    <path id="Trazado_273" data-name="Trazado 273" d="M1117.369-1428.216c15.268-6.445,14.48,5.882,14.48,5.882-5.882,14.48-11.651,7.922-11.651,7.922-7.24-2.941-2.828-13.8-2.828-13.8" transform="translate(-330.813 -31.1)" fill="#df5b41"/>
    <path id="Trazado_274" data-name="Trazado 274" d="M572.221-1266.211c-5.883,14.48-11.652,7.922-11.652,7.922-7.239-2.948-2.827-13.8-2.827-13.8,15.271-6.445,14.479,5.882,14.479,5.882m-42.873,12.1s5.373,12.728,15.157,14.592c0,0,26.808,6.677,34.955-23.753S551.3-1287.36,551.3-1287.36s-26.526,8.2-21.948,33.251" transform="translate(-156.75 -73.242)" fill="#b8e26b"/>
    <path id="Trazado_275" data-name="Trazado 275" d="M569.368-1266.216c15.271-6.445,14.479,5.882,14.479,5.882-5.883,14.48-11.652,7.922-11.652,7.922-7.239-2.941-2.827-13.8-2.827-13.8" transform="translate(-168.376 -79.119)" fill="#df5b41"/>
    <path id="Trazado_276" data-name="Trazado 276" d="M1278.222-888.209c-5.882,14.478-11.651,7.917-11.651,7.917-7.24-2.942-2.828-13.8-2.828-13.8,15.268-6.447,14.48,5.883,14.48,5.883m-42.876,12.1s5.375,12.726,15.155,14.593c0,0,26.814,6.676,34.961-23.752s-28.165-24.1-28.165-24.1-26.532,8.2-21.952,33.254" transform="translate(-366.02 -185.287)" fill="#b8e26b"/>
    <path id="Trazado_277" data-name="Trazado 277" d="M1275.369-888.215c15.268-6.447,14.48,5.883,14.48,5.883-5.882,14.478-11.651,7.917-11.651,7.917-7.24-2.941-2.828-13.8-2.828-13.8" transform="translate(-377.647 -191.165)" fill="#df5b41"/>
    <path id="Trazado_278" data-name="Trazado 278" d="M110.221-1090.211c-5.883,14.48-11.652,7.922-11.652,7.922-7.239-2.948-2.827-13.8-2.827-13.8,15.271-6.445,14.479,5.882,14.479,5.882m-42.873,12.1s5.373,12.728,15.157,14.592c0,0,26.808,6.677,34.954-23.753S89.3-1111.36,89.3-1111.36s-26.526,8.2-21.948,33.251" transform="translate(-19.806 -125.412)" fill="#b8e26b"/>
    <path id="Trazado_279" data-name="Trazado 279" d="M107.368-1090.216c15.271-6.445,14.479,5.882,14.479,5.882-5.883,14.48-11.652,7.922-11.652,7.922-7.239-2.941-2.827-13.8-2.827-13.8" transform="translate(-31.431 -131.289)" fill="#df5b41"/>
    <path id="Trazado_280" data-name="Trazado 280" d="M95.537-1436.794c14.338-6.22,13.863,2.5,13.863,2.5,3.109,7.169-7.644,11.834-7.644,11.834-15.417-6.086-6.218-14.339-6.218-14.339m39.083,21.382s5.075-12.847-.6-21.037c0,0-14.467-23.535-41.588-7.514s3.239,36.924,3.239,36.924,24.68,12.721,38.953-8.373" transform="translate(-24.057 -25.329)" fill="#b8e26b"/>
    <path id="Trazado_281" data-name="Trazado 281" d="M106.665-1418.023c-15.417-6.086-6.218-14.339-6.218-14.339,14.338-6.22,13.862,2.5,13.862,2.5,3.11,7.169-7.644,11.834-7.644,11.834" transform="translate(-28.967 -29.76)" fill="#df5b41"/>
    <path id="Trazado_282" data-name="Trazado 282" d="M411.221-1435.211c-5.883,14.48-11.652,7.922-11.652,7.922-7.239-2.948-2.827-13.8-2.827-13.8,15.271-6.445,14.479,5.882,14.479,5.882m-42.873,12.1s5.373,12.728,15.157,14.592c0,0,26.808,6.677,34.955-23.753S390.3-1456.36,390.3-1456.36s-26.526,8.2-21.948,33.251" transform="translate(-109.027 -23.148)" fill="#b8e26b"/>
    <path id="Trazado_283" data-name="Trazado 283" d="M408.368-1435.216c15.271-6.445,14.479,5.882,14.479,5.882-5.883,14.48-11.652,7.922-11.652,7.922-7.239-2.941-2.827-13.8-2.827-13.8" transform="translate(-120.652 -29.025)" fill="#df5b41"/>
    <path id="Trazado_284" data-name="Trazado 284" d="M1257.7-1260.361c14.838-4.074,13.213,4.552,13.213,4.552,2.083,7.6-9.041,10.652-9.041,10.652-14.262-8.352-4.172-15.2-4.172-15.2m35.348,27.095s6.67-12.052,2.209-21.044c0,0-11.011-25.6-39.647-13.657s-1.738,37.269-1.738,37.269,22.43,16.33,39.176-2.568" transform="translate(-368.275 -78.213)" fill="#b8e26b"/>
    <path id="Trazado_285" data-name="Trazado 285" d="M1266.853-1241.076c-14.262-8.352-4.172-15.2-4.172-15.2,14.838-4.074,13.213,4.552,13.213,4.552,2.083,7.6-9.041,10.652-9.041,10.652" transform="translate(-373.253 -82.293)" fill="#df5b41"/>
    <path id="Trazado_286" data-name="Trazado 286" d="M761.221-1101.211c-5.883,14.48-11.652,7.922-11.652,7.922-7.239-2.948-2.826-13.8-2.826-13.8,15.271-6.445,14.478,5.882,14.478,5.882m-42.873,12.1s5.373,12.728,15.157,14.592c0,0,26.809,6.677,34.955-23.753S740.3-1122.36,740.3-1122.36s-26.526,8.2-21.948,33.251" transform="translate(-212.773 -122.151)" fill="#b8e26b"/>
    <path id="Trazado_287" data-name="Trazado 287" d="M758.368-1101.216c15.271-6.445,14.478,5.882,14.478,5.882-5.883,14.48-11.651,7.922-11.651,7.922-7.239-2.941-2.827-13.8-2.827-13.8" transform="translate(-224.398 -128.028)" fill="#df5b41"/>
    <path id="Trazado_288" data-name="Trazado 288" d="M237.221-863.21c-5.883,14.478-11.652,7.917-11.652,7.917-7.239-2.942-2.827-13.8-2.827-13.8,15.271-6.447,14.479,5.883,14.479,5.883m-42.873,12.1s5.373,12.726,15.157,14.593c0,0,26.808,6.676,34.955-23.752s-28.164-24.1-28.164-24.1-26.526,8.2-21.948,33.254" transform="translate(-57.451 -192.698)" fill="#b8e26b"/>
    <path id="Trazado_289" data-name="Trazado 289" d="M234.368-863.215c15.271-6.447,14.479,5.883,14.479,5.883-5.883,14.478-11.652,7.917-11.652,7.917-7.239-2.941-2.827-13.8-2.827-13.8" transform="translate(-69.076 -198.575)" fill="#df5b41"/>
    <path id="Trazado_290" data-name="Trazado 290" d="M943.221-868.209c-5.883,14.478-11.652,7.917-11.652,7.917-7.239-2.942-2.826-13.8-2.826-13.8,15.271-6.447,14.478,5.883,14.478,5.883m-42.873,12.1s5.373,12.726,15.157,14.593c0,0,26.809,6.676,34.955-23.751s-28.164-24.1-28.164-24.1-26.526,8.2-21.948,33.254" transform="translate(-266.721 -191.215)" fill="#b8e26b"/>
    <path id="Trazado_291" data-name="Trazado 291" d="M939.12-868.354c18.432-7.515,17.6,7.151,17.6,7.151-6.977,17.17-14.032,9.3-14.032,9.3-8.8-3.576-3.567-16.454-3.567-16.454" transform="translate(-277.913 -196.97)" fill="#df5b41"/>
    <path id="Trazado_292" data-name="Trazado 292" d="M572.221-871.209c-5.883,14.478-11.652,7.917-11.652,7.917-7.239-2.942-2.827-13.8-2.827-13.8,15.271-6.447,14.479,5.883,14.479,5.883m-42.873,12.1s5.373,12.726,15.157,14.593c0,0,26.808,6.676,34.955-23.751s-28.164-24.1-28.164-24.1-26.526,8.2-21.948,33.254" transform="translate(-156.75 -190.326)" fill="#b8e26b"/>
    <path id="Trazado_293" data-name="Trazado 293" d="M568.766-875.809c18.855-11.5,16.231,6.6,16.231,6.6-8.909,21.926-14.8,13.147-14.8,13.147-8.116-3.3-1.434-19.743-1.434-19.743" transform="translate(-167.825 -194.262)" fill="#df5b41"/>
    <path id="Trazado_294" data-name="Trazado 294" d="M935.29-515.122c-5.883,14.479-5.72,8.985-5.72,8.985-7.239-2.941-2.826-13.8-2.826-13.8,15.271-6.446,8.547,4.815,8.547,4.815m-36.941,13.169s5.373,12.726,15.157,14.593c0,0,26.809,6.676,34.955-23.752s-28.165-24.1-28.165-24.1-26.526,8.2-21.947,33.255" transform="translate(-266.128 -296.193)" fill="#b8e26b"/>
    <path id="Trazado_295" data-name="Trazado 295" d="M934.814-517.2c15.271-6.447,12.665,6.332,12.665,6.332-5.883,14.479-8.443,11.257-8.443,11.257-7.239-2.942-4.222-17.59-4.222-17.59" transform="translate(-276.91 -301.156)" fill="#df5b41"/>
    <path id="Trazado_296" data-name="Trazado 296" d="M411.272-369.258c9.078,12.721.449,14.079.449,14.079-6.36,4.54-13.17-5-13.17-5,2.731-16.349,12.721-9.078,12.721-9.078M398.538-326.57s13.625,2.277,20.44-4.988c0,0,19.992-19.068-1.346-42.24S382.2-362.911,382.2-362.911s-7.278,26.794,16.336,36.341" transform="translate(-112.977 -341.806)" fill="#b8e26b"/>
    <path id="Trazado_297" data-name="Trazado 297" d="M405.885-355.543c2.731-16.349,12.721-9.078,12.721-9.078,9.078,12.721.449,14.079.449,14.079-6.36,4.54-13.17-5-13.17-5" transform="translate(-120.311 -346.442)" fill="#df5b41"/>
    <path id="Trazado_298" data-name="Trazado 298" d="M730.464-684.148c1.132-15.587,7.951.265,7.951.265,7.794.566,7.637.867,7.637.867-12.54,10.842-15.587-1.132-15.587-1.132m37.053-24.729s-9.034-10.45-18.917-9.21c0,0-27.561,1.914-25.929,33.372s34.221,14.239,34.221,14.239,22.707-15.978,10.625-38.4" transform="translate(-214.191 -242.117)" fill="#b8e26b"/>
    <path id="Trazado_299" data-name="Trazado 299" d="M748.364-670.207c-12.54,10.841-15.587-1.132-15.587-1.132,1.132-15.588,9.358-4.66,9.358-4.66,7.794.566,6.229,5.792,6.229,5.792" transform="translate(-217.208 -253.519)" fill="#df5b41"/>
    <path id="Trazado_300" data-name="Trazado 300" d="M1100.914-381.991c15.451,2.329,10.427,9.474,10.427,9.474-1.168,7.727-12.756,5.98-12.756,5.98-9.843-13.336,2.329-15.454,2.329-15.454m21.8,38.846s11.11-8.2,10.638-18.152c0,0,.211-27.627-31.281-28.421s-16.83,33.025-16.83,33.025,14.184,23.868,37.473,13.548" transform="translate(-320.675 -339.477)" fill="#b8e26b"/>
    <path id="Trazado_301" data-name="Trazado 301" d="M1104.021-363.276c-9.843-13.337,2.329-15.454,2.329-15.454,15.451,2.329,10.427,9.473,10.427,9.473-1.168,7.727-12.756,5.98-12.756,5.98" transform="translate(-326.111 -342.738)" fill="#df5b41"/>
    <path id="Trazado_302" data-name="Trazado 302" d="M235.665-503.426c-11.5-10.584-3.331-13.687-3.331-13.687,5.292-5.749,13.915,2.189,13.915,2.189.686,16.562-10.584,11.5-10.584,11.5m3.692-44.394s-13.8.571-18.98,9.081c0,0-15.648,22.768,10,41.062s32.439-17.933,32.439-17.933,1.618-27.718-23.454-32.21" transform="translate(-63.922 -292.617)" fill="#b8e26b"/>
    <path id="Trazado_303" data-name="Trazado 303" d="M252.093-502.869c.685,16.562-10.584,11.5-10.584,11.5-11.5-10.585-3.332-13.687-3.332-13.687,5.292-5.75,13.916,2.189,13.916,2.189" transform="translate(-69.766 -304.673)" fill="#df5b41"/>
    <path id="Trazado_304" data-name="Trazado 304" d="M1120.222-691.053c-5.882,14.479-11.651,7.917-11.651,7.917-7.24-2.942-2.828-13.8-2.828-13.8,15.268-6.447,14.48,5.883,14.48,5.883m-42.876,12.1s5.375,12.726,15.155,14.593c0,0,26.813,6.676,34.961-23.752s-28.165-24.1-28.165-24.1-26.532,8.2-21.952,33.255" transform="translate(-319.186 -243.728)" fill="#b8e26b"/>
    <path id="Trazado_305" data-name="Trazado 305" d="M1117.369-691.059c15.268-6.447,14.48,5.883,14.48,5.883-5.882,14.479-11.651,7.917-11.651,7.917-7.24-2.941-2.828-13.8-2.828-13.8" transform="translate(-330.813 -249.605)" fill="#df5b41"/>
    <path id="Trazado_306" data-name="Trazado 306" d="M572.221-529.053c-5.883,14.479-11.652,7.917-11.652,7.917-7.239-2.942-2.827-13.8-2.827-13.8,15.271-6.447,14.479,5.883,14.479,5.883m-42.873,12.1s5.373,12.726,15.157,14.593c0,0,26.808,6.676,34.955-23.752s-28.164-24.1-28.164-24.1-26.526,8.2-21.948,33.255" transform="translate(-156.75 -291.747)" fill="#b8e26b"/>
    <path id="Trazado_307" data-name="Trazado 307" d="M569.368-529.059c15.271-6.447,14.479,5.883,14.479,5.883-5.883,14.479-11.652,7.917-11.652,7.917-7.239-2.941-2.827-13.8-2.827-13.8" transform="translate(-168.376 -297.625)" fill="#df5b41"/>
    <path id="Trazado_308" data-name="Trazado 308" d="M1278.222-151.053c-5.882,14.478-11.651,7.917-11.651,7.917-7.24-2.942-2.828-13.8-2.828-13.8,15.268-6.447,14.48,5.883,14.48,5.883m-42.876,12.1s5.375,12.726,15.155,14.593c0,0,26.814,6.676,34.961-23.752s-28.165-24.1-28.165-24.1-26.532,8.2-21.952,33.254" transform="translate(-366.02 -403.793)" fill="#b8e26b"/>
    <path id="Trazado_309" data-name="Trazado 309" d="M1275.369-151.059c15.268-6.447,14.48,5.883,14.48,5.883-5.882,14.478-11.651,7.917-11.651,7.917-7.24-2.941-2.828-13.8-2.828-13.8" transform="translate(-377.647 -409.671)" fill="#df5b41"/>
    <path id="Trazado_310" data-name="Trazado 310" d="M110.221-353.053c-5.883,14.478-11.652,7.917-11.652,7.917-7.239-2.942-2.827-13.8-2.827-13.8,15.271-6.447,14.479,5.883,14.479,5.883m-42.873,12.1s5.373,12.726,15.157,14.593c0,0,26.808,6.676,34.954-23.752s-28.164-24.1-28.164-24.1-26.526,8.2-21.948,33.254" transform="translate(-19.806 -343.916)" fill="#b8e26b"/>
    <path id="Trazado_311" data-name="Trazado 311" d="M107.368-353.059c15.271-6.447,14.479,5.883,14.479,5.883-5.883,14.478-11.652,7.917-11.652,7.917-7.239-2.941-2.827-13.8-2.827-13.8" transform="translate(-31.431 -349.794)" fill="#df5b41"/>
    <path id="Trazado_312" data-name="Trazado 312" d="M95.537-699.636c14.338-6.219,13.863,2.5,13.863,2.5,3.109,7.169-7.644,11.833-7.644,11.833-15.417-6.09-6.218-14.338-6.218-14.338m39.083,21.377s5.075-12.847-.6-21.031c0,0-14.467-23.536-41.588-7.514s3.239,36.924,3.239,36.924,24.68,12.718,38.953-8.378" transform="translate(-24.057 -243.835)" fill="#b8e26b"/>
    <path id="Trazado_313" data-name="Trazado 313" d="M106.665-680.867c-15.417-6.09-6.218-14.338-6.218-14.338,14.338-6.219,13.862,2.5,13.862,2.5,3.11,7.169-7.644,11.833-7.644,11.833" transform="translate(-28.967 -248.267)" fill="#df5b41"/>
    <path id="Trazado_314" data-name="Trazado 314" d="M411.221-698.053c-5.883,14.479-11.652,7.917-11.652,7.917-7.239-2.942-2.827-13.8-2.827-13.8,15.271-6.447,14.479,5.883,14.479,5.883m-42.873,12.1s5.373,12.726,15.157,14.593c0,0,26.808,6.676,34.955-23.752s-28.164-24.1-28.164-24.1-26.526,8.2-21.948,33.255" transform="translate(-109.027 -241.653)" fill="#b8e26b"/>
    <path id="Trazado_315" data-name="Trazado 315" d="M408.368-698.059c15.271-6.447,14.479,5.883,14.479,5.883-5.883,14.479-11.652,7.917-11.652,7.917-7.239-2.941-2.827-13.8-2.827-13.8" transform="translate(-120.652 -247.53)" fill="#df5b41"/>
    <path id="Trazado_316" data-name="Trazado 316" d="M1257.7-523.206c14.838-4.07,13.213,4.551,13.213,4.551,2.083,7.6-9.041,10.656-9.041,10.656-14.262-8.352-4.172-15.207-4.172-15.207m35.348,27.094s6.67-12.049,2.209-21.044c0,0-11.011-25.6-39.647-13.653s-1.738,37.269-1.738,37.269,22.43,16.331,39.176-2.572" transform="translate(-368.275 -296.718)" fill="#b8e26b"/>
    <path id="Trazado_317" data-name="Trazado 317" d="M1266.853-503.918c-14.262-8.353-4.172-15.207-4.172-15.207,14.838-4.07,13.213,4.551,13.213,4.551,2.083,7.6-9.041,10.656-9.041,10.656" transform="translate(-373.253 -300.799)" fill="#df5b41"/>
    <path id="Trazado_318" data-name="Trazado 318" d="M761.221-364.053c-5.883,14.478-11.652,7.917-11.652,7.917-7.239-2.942-2.826-13.8-2.826-13.8,15.271-6.447,14.478,5.883,14.478,5.883m-42.873,12.1s5.373,12.726,15.157,14.593c0,0,26.809,6.676,34.955-23.752s-28.164-24.1-28.164-24.1-26.526,8.2-21.948,33.254" transform="translate(-212.773 -340.656)" fill="#b8e26b"/>
    <path id="Trazado_319" data-name="Trazado 319" d="M758.368-364.059c15.271-6.447,14.478,5.883,14.478,5.883-5.883,14.478-11.651,7.917-11.651,7.917-7.239-2.941-2.827-13.8-2.827-13.8" transform="translate(-224.398 -346.534)" fill="#df5b41"/>
    <path id="Trazado_320" data-name="Trazado 320" d="M237.221-126.053c-5.883,14.478-11.652,7.917-11.652,7.917-7.239-2.942-2.827-13.8-2.827-13.8,15.271-6.447,14.479,5.883,14.479,5.883m-42.873,12.1s5.373,12.726,15.157,14.593c0,0,26.808,6.676,34.955-23.751s-28.164-24.1-28.164-24.1-26.526,8.2-21.948,33.254" transform="translate(-57.451 -411.203)" fill="#b8e26b"/>
    <path id="Trazado_321" data-name="Trazado 321" d="M234.368-126.059c15.271-6.447,14.479,5.883,14.479,5.883-5.883,14.479-11.652,7.917-11.652,7.917-7.239-2.941-2.827-13.8-2.827-13.8" transform="translate(-69.076 -417.081)" fill="#df5b41"/>
    <path id="Trazado_322" data-name="Trazado 322" d="M943.221-131.053c-5.883,14.478-11.652,7.917-11.652,7.917-7.239-2.942-2.826-13.8-2.826-13.8,15.271-6.447,14.478,5.883,14.478,5.883m-42.873,12.1s5.373,12.726,15.157,14.593c0,0,26.809,6.676,34.955-23.751s-28.164-24.1-28.164-24.1-26.526,8.2-21.948,33.254" transform="translate(-266.721 -409.721)" fill="#b8e26b"/>
    <path id="Trazado_323" data-name="Trazado 323" d="M939.12-131.2c18.432-7.515,17.6,7.151,17.6,7.151-6.977,17.17-14.032,9.3-14.032,9.3-8.8-3.576-3.567-16.454-3.567-16.454" transform="translate(-277.913 -415.476)" fill="#df5b41"/>
    <path id="Trazado_324" data-name="Trazado 324" d="M572.221-134.053c-5.883,14.478-11.652,7.917-11.652,7.917-7.239-2.942-2.827-13.8-2.827-13.8,15.271-6.447,14.479,5.883,14.479,5.883m-42.873,12.1s5.373,12.726,15.157,14.593c0,0,26.808,6.676,34.955-23.751s-28.164-24.1-28.164-24.1-26.526,8.2-21.948,33.254" transform="translate(-156.75 -408.832)" fill="#b8e26b"/>
    <path id="Trazado_325" data-name="Trazado 325" d="M568.766-138.653c18.855-11.5,16.231,6.6,16.231,6.6-8.909,21.926-14.8,13.147-14.8,13.147-8.116-3.3-1.434-19.743-1.434-19.743" transform="translate(-167.825 -412.767)" fill="#df5b41"/>
    <path id="Trazado_326" data-name="Trazado 326" d="M2280.771-1252.28c-5.882,14.48-5.72,8.992-5.72,8.992-7.24-2.941-2.828-13.8-2.828-13.8,15.275-6.445,8.549,4.813,8.549,4.813m-36.945,13.171s5.375,12.728,15.162,14.592c0,0,26.807,6.677,34.954-23.753s-28.164-24.091-28.164-24.091-26.532,8.2-21.952,33.251" transform="translate(-664.95 -77.689)" fill="#b8e26b"/>
    <path id="Trazado_327" data-name="Trazado 327" d="M2280.3-1254.355c15.268-6.445,12.665,6.332,12.665,6.332-5.882,14.48-8.443,11.257-8.443,11.257-7.24-2.941-4.221-17.589-4.221-17.589" transform="translate(-675.734 -82.649)" fill="#df5b41"/>
    <path id="Trazado_328" data-name="Trazado 328" d="M1756.756-1106.414c9.076,12.721.443,14.079.443,14.079-6.36,4.538-13.164-5-13.164-5,2.73-16.344,12.721-9.076,12.721-9.076m-12.735,42.686s13.621,2.28,20.439-4.989c0,0,19.989-19.067-1.344-42.236s-35.432,10.885-35.432,10.885-7.282,26.792,16.337,36.34" transform="translate(-511.801 -123.301)" fill="#b8e26b"/>
    <path id="Trazado_329" data-name="Trazado 329" d="M1751.37-1092.7c2.73-16.344,12.721-9.076,12.721-9.076,9.076,12.721.443,14.079.443,14.079-6.36,4.538-13.164-5-13.164-5" transform="translate(-519.136 -127.937)" fill="#df5b41"/>
    <path id="Trazado_330" data-name="Trazado 330" d="M2075.946-1421.3c1.133-15.591,7.95.26,7.95.26,7.8.57,7.634.872,7.634.872-12.538,10.835-15.584-1.133-15.584-1.133M2113-1446.033s-9.034-10.448-18.919-9.21c0,0-27.559,1.914-25.927,33.371s34.222,14.24,34.222,14.24,22.7-15.978,10.624-38.4" transform="translate(-613.014 -23.611)" fill="#b8e26b"/>
    <path id="Trazado_331" data-name="Trazado 331" d="M2093.844-1407.36c-12.538,10.835-15.584-1.133-15.584-1.133,1.133-15.591,9.358-4.665,9.358-4.665,7.8.57,6.227,5.8,6.227,5.8" transform="translate(-616.031 -35.013)" fill="#df5b41"/>
    <path id="Trazado_332" data-name="Trazado 332" d="M2446.394-1119.15c15.451,2.329,10.427,9.477,10.427,9.477-1.168,7.725-12.756,5.98-12.756,5.98-9.843-13.34,2.329-15.458,2.329-15.458m21.8,38.852s11.117-8.2,10.638-18.152c0,0,.211-27.63-31.281-28.425s-16.83,33.026-16.83,33.026,14.185,23.866,37.473,13.551" transform="translate(-719.498 -120.971)" fill="#b8e26b"/>
    <path id="Trazado_333" data-name="Trazado 333" d="M2449.5-1100.432c-9.843-13.34,2.329-15.458,2.329-15.458,15.451,2.329,10.427,9.477,10.427,9.477-1.168,7.725-12.756,5.98-12.756,5.98" transform="translate(-724.934 -124.231)" fill="#df5b41"/>
    <path id="Trazado_334" data-name="Trazado 334" d="M1581.147-1240.584c-11.5-10.582-3.335-13.685-3.335-13.685,5.291-5.748,13.917,2.188,13.917,2.188.689,16.562-10.582,11.5-10.582,11.5m3.694-44.4s-13.8.577-18.983,9.083c0,0-15.648,22.768,10,41.061s32.435-17.934,32.435-17.934,1.618-27.714-23.451-32.21" transform="translate(-462.746 -74.11)" fill="#b8e26b"/>
    <path id="Trazado_335" data-name="Trazado 335" d="M1597.573-1240.022c.689,16.562-10.582,11.5-10.582,11.5-11.5-10.582-3.335-13.685-3.335-13.685,5.291-5.748,13.917,2.188,13.917,2.188" transform="translate(-468.59 -86.169)" fill="#df5b41"/>
    <path id="Trazado_336" data-name="Trazado 336" d="M2465.7-1428.211c-5.882,14.48-11.651,7.922-11.651,7.922-7.24-2.948-2.828-13.8-2.828-13.8,15.275-6.445,14.48,5.882,14.48,5.882m-42.876,12.1s5.375,12.728,15.162,14.592c0,0,26.807,6.677,34.954-23.753s-28.164-24.091-28.164-24.091-26.525,8.2-21.952,33.251" transform="translate(-718.01 -25.223)" fill="#b8e26b"/>
    <path id="Trazado_337" data-name="Trazado 337" d="M2462.849-1428.216c15.275-6.445,14.48,5.882,14.48,5.882-5.882,14.48-11.651,7.922-11.651,7.922-7.24-2.941-2.828-13.8-2.828-13.8" transform="translate(-729.635 -31.1)" fill="#df5b41"/>
    <path id="Trazado_338" data-name="Trazado 338" d="M1917.7-1266.211c-5.882,14.48-11.651,7.922-11.651,7.922-7.24-2.948-2.828-13.8-2.828-13.8,15.268-6.445,14.48,5.882,14.48,5.882m-42.876,12.1s5.375,12.728,15.162,14.592c0,0,26.807,6.677,34.954-23.753s-28.164-24.091-28.164-24.091-26.525,8.2-21.952,33.251" transform="translate(-555.573 -73.242)" fill="#b8e26b"/>
    <path id="Trazado_339" data-name="Trazado 339" d="M1914.849-1266.216c15.275-6.445,14.48,5.882,14.48,5.882-5.882,14.48-11.651,7.922-11.651,7.922-7.24-2.941-2.828-13.8-2.828-13.8" transform="translate(-567.199 -79.119)" fill="#df5b41"/>
    <path id="Trazado_340" data-name="Trazado 340" d="M2623.7-888.209c-5.882,14.478-11.651,7.917-11.651,7.917-7.24-2.942-2.829-13.8-2.829-13.8,15.275-6.447,14.48,5.883,14.48,5.883m-42.876,12.1s5.375,12.726,15.162,14.593c0,0,26.807,6.676,34.954-23.752s-28.165-24.1-28.165-24.1-26.525,8.2-21.952,33.254" transform="translate(-764.844 -185.287)" fill="#b8e26b"/>
    <path id="Trazado_341" data-name="Trazado 341" d="M2620.849-888.215c15.275-6.447,14.48,5.883,14.48,5.883-5.882,14.478-11.651,7.917-11.651,7.917-7.24-2.941-2.828-13.8-2.828-13.8" transform="translate(-776.469 -191.165)" fill="#df5b41"/>
    <path id="Trazado_342" data-name="Trazado 342" d="M1455.7-1090.211c-5.882,14.48-11.651,7.922-11.651,7.922-7.24-2.948-2.828-13.8-2.828-13.8,15.268-6.445,14.48,5.882,14.48,5.882m-42.876,12.1s5.375,12.728,15.162,14.592c0,0,26.806,6.677,34.954-23.753s-28.164-24.091-28.164-24.091-26.525,8.2-21.952,33.251" transform="translate(-418.629 -125.412)" fill="#b8e26b"/>
    <path id="Trazado_343" data-name="Trazado 343" d="M1452.849-1090.216c15.275-6.445,14.48,5.882,14.48,5.882-5.882,14.48-11.651,7.922-11.651,7.922-7.24-2.941-2.828-13.8-2.828-13.8" transform="translate(-430.255 -131.289)" fill="#df5b41"/>
    <path id="Trazado_344" data-name="Trazado 344" d="M1441.022-1436.794c14.332-6.22,13.861,2.5,13.861,2.5,3.11,7.169-7.648,11.834-7.648,11.834-15.416-6.086-6.213-14.339-6.213-14.339m39.077,21.382s5.08-12.847-.605-21.037c0,0-14.466-23.535-41.582-7.514s3.236,36.924,3.236,36.924,24.682,12.721,38.95-8.373" transform="translate(-422.881 -25.329)" fill="#b8e26b"/>
    <path id="Trazado_345" data-name="Trazado 345" d="M1452.144-1418.023c-15.416-6.086-6.213-14.339-6.213-14.339,14.332-6.22,13.861,2.5,13.861,2.5,3.11,7.169-7.648,11.834-7.648,11.834" transform="translate(-427.791 -29.76)" fill="#df5b41"/>
    <path id="Trazado_346" data-name="Trazado 346" d="M1756.7-1435.211c-5.882,14.48-11.651,7.922-11.651,7.922-7.24-2.948-2.828-13.8-2.828-13.8,15.268-6.445,14.479,5.882,14.479,5.882m-42.876,12.1s5.375,12.728,15.162,14.592c0,0,26.806,6.677,34.954-23.753s-28.164-24.091-28.164-24.091-26.525,8.2-21.952,33.251" transform="translate(-507.85 -23.148)" fill="#b8e26b"/>
    <path id="Trazado_347" data-name="Trazado 347" d="M1753.849-1435.216c15.275-6.445,14.48,5.882,14.48,5.882-5.882,14.48-11.651,7.922-11.651,7.922-7.24-2.941-2.828-13.8-2.828-13.8" transform="translate(-519.476 -29.025)" fill="#df5b41"/>
    <path id="Trazado_348" data-name="Trazado 348" d="M2603.183-1260.361c14.838-4.074,13.213,4.552,13.213,4.552,2.083,7.6-9.041,10.652-9.041,10.652-14.255-8.352-4.172-15.2-4.172-15.2m35.348,27.095s6.67-12.052,2.209-21.044c0,0-11.011-25.6-39.647-13.657s-1.738,37.269-1.738,37.269,22.43,16.33,39.176-2.568" transform="translate(-767.098 -78.213)" fill="#b8e26b"/>
    <path id="Trazado_349" data-name="Trazado 349" d="M2612.334-1241.076c-14.255-8.352-4.172-15.2-4.172-15.2,14.838-4.074,13.213,4.552,13.213,4.552,2.083,7.6-9.041,10.652-9.041,10.652" transform="translate(-772.078 -82.293)" fill="#df5b41"/>
    <path id="Trazado_350" data-name="Trazado 350" d="M2106.7-1101.211c-5.882,14.48-11.651,7.922-11.651,7.922-7.24-2.948-2.828-13.8-2.828-13.8,15.275-6.445,14.48,5.882,14.48,5.882m-42.876,12.1s5.375,12.728,15.162,14.592c0,0,26.807,6.677,34.954-23.753s-28.164-24.091-28.164-24.091-26.525,8.2-21.952,33.251" transform="translate(-611.596 -122.151)" fill="#b8e26b"/>
    <path id="Trazado_351" data-name="Trazado 351" d="M2103.849-1101.216c15.275-6.445,14.48,5.882,14.48,5.882-5.882,14.48-11.651,7.922-11.651,7.922-7.24-2.941-2.828-13.8-2.828-13.8" transform="translate(-623.222 -128.028)" fill="#df5b41"/>
    <path id="Trazado_352" data-name="Trazado 352" d="M1582.7-863.21c-5.882,14.478-11.651,7.917-11.651,7.917-7.24-2.942-2.828-13.8-2.828-13.8,15.268-6.447,14.48,5.883,14.48,5.883m-42.876,12.1s5.375,12.726,15.162,14.593c0,0,26.807,6.676,34.954-23.752s-28.165-24.1-28.165-24.1-26.525,8.2-21.952,33.254" transform="translate(-456.273 -192.698)" fill="#b8e26b"/>
    <path id="Trazado_353" data-name="Trazado 353" d="M1579.849-863.215c15.275-6.447,14.48,5.883,14.48,5.883-5.882,14.478-11.651,7.917-11.651,7.917-7.24-2.941-2.828-13.8-2.828-13.8" transform="translate(-467.899 -198.575)" fill="#df5b41"/>
    <path id="Trazado_354" data-name="Trazado 354" d="M2288.7-868.209c-5.882,14.478-11.651,7.917-11.651,7.917-7.24-2.942-2.828-13.8-2.828-13.8,15.275-6.447,14.48,5.883,14.48,5.883m-42.876,12.1s5.375,12.726,15.162,14.593c0,0,26.806,6.676,34.954-23.751s-28.164-24.1-28.164-24.1-26.525,8.2-21.952,33.254" transform="translate(-665.544 -191.215)" fill="#b8e26b"/>
    <path id="Trazado_355" data-name="Trazado 355" d="M2284.6-868.354c18.434-7.515,17.6,7.151,17.6,7.151-6.979,17.17-14.036,9.3-14.036,9.3-8.795-3.576-3.567-16.454-3.567-16.454" transform="translate(-676.737 -196.97)" fill="#df5b41"/>
    <path id="Trazado_356" data-name="Trazado 356" d="M1917.7-871.209c-5.882,14.478-11.651,7.917-11.651,7.917-7.24-2.942-2.828-13.8-2.828-13.8,15.268-6.447,14.48,5.883,14.48,5.883m-42.876,12.1s5.375,12.726,15.162,14.593c0,0,26.807,6.676,34.954-23.751s-28.164-24.1-28.164-24.1-26.525,8.2-21.952,33.254" transform="translate(-555.573 -190.326)" fill="#b8e26b"/>
    <path id="Trazado_357" data-name="Trazado 357" d="M1914.25-875.809c18.856-11.5,16.232,6.6,16.232,6.6-8.914,21.926-14.8,13.147-14.8,13.147-8.119-3.3-1.435-19.743-1.435-19.743" transform="translate(-566.649 -194.262)" fill="#df5b41"/>
    <path id="Trazado_358" data-name="Trazado 358" d="M2280.771-515.122c-5.882,14.479-5.72,8.985-5.72,8.985-7.24-2.941-2.828-13.8-2.828-13.8,15.275-6.446,8.549,4.815,8.549,4.815m-36.945,13.169s5.375,12.726,15.162,14.593c0,0,26.807,6.676,34.954-23.752s-28.164-24.1-28.164-24.1-26.532,8.2-21.952,33.255" transform="translate(-664.95 -296.193)" fill="#b8e26b"/>
    <path id="Trazado_359" data-name="Trazado 359" d="M2280.3-517.2c15.268-6.447,12.665,6.332,12.665,6.332-5.882,14.479-8.443,11.257-8.443,11.257-7.24-2.942-4.221-17.59-4.221-17.59" transform="translate(-675.734 -301.156)" fill="#df5b41"/>
    <path id="Trazado_360" data-name="Trazado 360" d="M1756.756-369.258c9.076,12.721.443,14.079.443,14.079-6.36,4.54-13.164-5-13.164-5,2.73-16.349,12.721-9.078,12.721-9.078m-12.735,42.688s13.621,2.277,20.439-4.988c0,0,19.989-19.068-1.344-42.24s-35.432,10.887-35.432,10.887-7.282,26.794,16.337,36.341" transform="translate(-511.801 -341.806)" fill="#b8e26b"/>
    <path id="Trazado_361" data-name="Trazado 361" d="M1751.37-355.543c2.73-16.349,12.721-9.078,12.721-9.078,9.076,12.721.443,14.079.443,14.079-6.36,4.54-13.164-5-13.164-5" transform="translate(-519.136 -346.442)" fill="#df5b41"/>
    <path id="Trazado_362" data-name="Trazado 362" d="M2075.946-684.148c1.133-15.587,7.95.265,7.95.265,7.8.566,7.634.867,7.634.867-12.538,10.842-15.584-1.132-15.584-1.132M2113-708.877s-9.034-10.45-18.919-9.21c0,0-27.559,1.914-25.927,33.372s34.222,14.239,34.222,14.239,22.7-15.978,10.624-38.4" transform="translate(-613.014 -242.117)" fill="#b8e26b"/>
    <path id="Trazado_363" data-name="Trazado 363" d="M2093.844-670.207c-12.538,10.841-15.584-1.132-15.584-1.132,1.133-15.588,9.358-4.66,9.358-4.66,7.8.566,6.227,5.792,6.227,5.792" transform="translate(-616.031 -253.519)" fill="#df5b41"/>
    <path id="Trazado_364" data-name="Trazado 364" d="M2446.394-381.991c15.451,2.329,10.427,9.474,10.427,9.474-1.168,7.727-12.756,5.98-12.756,5.98-9.843-13.336,2.329-15.454,2.329-15.454m21.8,38.846s11.117-8.2,10.638-18.152c0,0,.211-27.627-31.281-28.421s-16.83,33.025-16.83,33.025,14.185,23.868,37.473,13.548" transform="translate(-719.498 -339.477)" fill="#b8e26b"/>
    <path id="Trazado_365" data-name="Trazado 365" d="M2449.5-363.276c-9.843-13.337,2.329-15.454,2.329-15.454,15.451,2.329,10.427,9.473,10.427,9.473-1.168,7.727-12.756,5.98-12.756,5.98" transform="translate(-724.934 -342.738)" fill="#df5b41"/>
    <path id="Trazado_366" data-name="Trazado 366" d="M1581.147-503.426c-11.5-10.584-3.335-13.687-3.335-13.687,5.291-5.749,13.917,2.189,13.917,2.189.689,16.562-10.582,11.5-10.582,11.5m3.694-44.394s-13.8.571-18.983,9.081c0,0-15.648,22.768,10,41.062s32.435-17.933,32.435-17.933,1.618-27.718-23.451-32.21" transform="translate(-462.746 -292.617)" fill="#b8e26b"/>
    <path id="Trazado_367" data-name="Trazado 367" d="M1597.573-502.869c.689,16.562-10.582,11.5-10.582,11.5-11.5-10.585-3.335-13.687-3.335-13.687,5.291-5.75,13.917,2.189,13.917,2.189" transform="translate(-468.59 -304.673)" fill="#df5b41"/>
    <path id="Trazado_368" data-name="Trazado 368" d="M2465.7-691.053c-5.882,14.479-11.651,7.917-11.651,7.917-7.24-2.942-2.828-13.8-2.828-13.8,15.275-6.447,14.48,5.883,14.48,5.883m-42.876,12.1s5.375,12.726,15.162,14.593c0,0,26.807,6.676,34.954-23.752s-28.164-24.1-28.164-24.1-26.525,8.2-21.952,33.255" transform="translate(-718.01 -243.728)" fill="#b8e26b"/>
    <path id="Trazado_369" data-name="Trazado 369" d="M2462.849-691.059c15.275-6.447,14.48,5.883,14.48,5.883-5.882,14.479-11.651,7.917-11.651,7.917-7.24-2.941-2.828-13.8-2.828-13.8" transform="translate(-729.635 -249.605)" fill="#df5b41"/>
    <path id="Trazado_370" data-name="Trazado 370" d="M1917.7-529.053c-5.882,14.479-11.651,7.917-11.651,7.917-7.24-2.942-2.828-13.8-2.828-13.8,15.268-6.447,14.48,5.883,14.48,5.883m-42.876,12.1s5.375,12.726,15.162,14.593c0,0,26.807,6.676,34.954-23.752s-28.164-24.1-28.164-24.1-26.525,8.2-21.952,33.255" transform="translate(-555.573 -291.747)" fill="#b8e26b"/>
    <path id="Trazado_371" data-name="Trazado 371" d="M1914.849-529.059c15.275-6.447,14.48,5.883,14.48,5.883-5.882,14.479-11.651,7.917-11.651,7.917-7.24-2.941-2.828-13.8-2.828-13.8" transform="translate(-567.199 -297.625)" fill="#df5b41"/>
    <path id="Trazado_372" data-name="Trazado 372" d="M2623.7-151.053c-5.882,14.478-11.651,7.917-11.651,7.917-7.24-2.942-2.829-13.8-2.829-13.8,15.275-6.447,14.48,5.883,14.48,5.883m-42.876,12.1s5.375,12.726,15.162,14.593c0,0,26.807,6.676,34.954-23.752s-28.165-24.1-28.165-24.1-26.525,8.2-21.952,33.254" transform="translate(-764.844 -403.793)" fill="#b8e26b"/>
    <path id="Trazado_373" data-name="Trazado 373" d="M2620.849-151.059c15.275-6.447,14.48,5.883,14.48,5.883-5.882,14.478-11.651,7.917-11.651,7.917-7.24-2.941-2.828-13.8-2.828-13.8" transform="translate(-776.469 -409.671)" fill="#df5b41"/>
    <path id="Trazado_374" data-name="Trazado 374" d="M1455.7-353.053c-5.882,14.478-11.651,7.917-11.651,7.917-7.24-2.942-2.828-13.8-2.828-13.8,15.268-6.447,14.48,5.883,14.48,5.883m-42.876,12.1s5.375,12.726,15.162,14.593c0,0,26.806,6.676,34.954-23.752s-28.164-24.1-28.164-24.1-26.525,8.2-21.952,33.254" transform="translate(-418.629 -343.916)" fill="#b8e26b"/>
    <path id="Trazado_375" data-name="Trazado 375" d="M1452.849-353.059c15.275-6.447,14.48,5.883,14.48,5.883-5.882,14.478-11.651,7.917-11.651,7.917-7.24-2.941-2.828-13.8-2.828-13.8" transform="translate(-430.255 -349.794)" fill="#df5b41"/>
    <path id="Trazado_376" data-name="Trazado 376" d="M1441.022-699.636c14.332-6.219,13.861,2.5,13.861,2.5,3.11,7.169-7.648,11.833-7.648,11.833-15.416-6.09-6.213-14.338-6.213-14.338m39.077,21.377s5.08-12.847-.605-21.031c0,0-14.466-23.536-41.582-7.514s3.236,36.924,3.236,36.924,24.682,12.718,38.95-8.378" transform="translate(-422.881 -243.835)" fill="#b8e26b"/>
    <path id="Trazado_377" data-name="Trazado 377" d="M1452.144-680.867c-15.416-6.09-6.213-14.338-6.213-14.338,14.332-6.219,13.861,2.5,13.861,2.5,3.11,7.169-7.648,11.833-7.648,11.833" transform="translate(-427.791 -248.267)" fill="#df5b41"/>
    <path id="Trazado_378" data-name="Trazado 378" d="M1756.7-698.053c-5.882,14.479-11.651,7.917-11.651,7.917-7.24-2.942-2.828-13.8-2.828-13.8,15.268-6.447,14.479,5.883,14.479,5.883m-42.876,12.1s5.375,12.726,15.162,14.593c0,0,26.806,6.676,34.954-23.752s-28.164-24.1-28.164-24.1-26.525,8.2-21.952,33.255" transform="translate(-507.85 -241.653)" fill="#b8e26b"/>
    <path id="Trazado_379" data-name="Trazado 379" d="M1753.849-698.059c15.275-6.447,14.48,5.883,14.48,5.883-5.882,14.479-11.651,7.917-11.651,7.917-7.24-2.941-2.828-13.8-2.828-13.8" transform="translate(-519.476 -247.53)" fill="#df5b41"/>
    <path id="Trazado_380" data-name="Trazado 380" d="M2603.183-523.206c14.838-4.07,13.213,4.551,13.213,4.551,2.083,7.6-9.041,10.656-9.041,10.656-14.255-8.352-4.172-15.207-4.172-15.207m35.348,27.094s6.67-12.049,2.209-21.044c0,0-11.011-25.6-39.647-13.653s-1.738,37.269-1.738,37.269,22.43,16.331,39.176-2.572" transform="translate(-767.098 -296.718)" fill="#b8e26b"/>
    <path id="Trazado_381" data-name="Trazado 381" d="M2612.334-503.918c-14.255-8.353-4.172-15.207-4.172-15.207,14.838-4.07,13.213,4.551,13.213,4.551,2.083,7.6-9.041,10.656-9.041,10.656" transform="translate(-772.078 -300.799)" fill="#df5b41"/>
    <path id="Trazado_382" data-name="Trazado 382" d="M2106.7-364.053c-5.882,14.478-11.651,7.917-11.651,7.917-7.24-2.942-2.828-13.8-2.828-13.8,15.275-6.447,14.48,5.883,14.48,5.883m-42.876,12.1s5.375,12.726,15.162,14.593c0,0,26.807,6.676,34.954-23.752s-28.164-24.1-28.164-24.1-26.525,8.2-21.952,33.254" transform="translate(-611.596 -340.656)" fill="#b8e26b"/>
    <path id="Trazado_383" data-name="Trazado 383" d="M2103.849-364.059c15.275-6.447,14.48,5.883,14.48,5.883-5.882,14.478-11.651,7.917-11.651,7.917-7.24-2.941-2.828-13.8-2.828-13.8" transform="translate(-623.222 -346.534)" fill="#df5b41"/>
    <path id="Trazado_384" data-name="Trazado 384" d="M1582.7-126.053c-5.882,14.478-11.651,7.917-11.651,7.917-7.24-2.942-2.828-13.8-2.828-13.8,15.268-6.447,14.48,5.883,14.48,5.883m-42.876,12.1s5.375,12.726,15.162,14.593c0,0,26.807,6.676,34.954-23.751s-28.165-24.1-28.165-24.1-26.525,8.2-21.952,33.254" transform="translate(-456.273 -411.203)" fill="#b8e26b"/>
    <path id="Trazado_385" data-name="Trazado 385" d="M1579.849-126.059c15.275-6.447,14.48,5.883,14.48,5.883-5.882,14.479-11.651,7.917-11.651,7.917-7.24-2.941-2.828-13.8-2.828-13.8" transform="translate(-467.899 -417.081)" fill="#df5b41"/>
    <path id="Trazado_386" data-name="Trazado 386" d="M2288.7-131.053c-5.882,14.478-11.651,7.917-11.651,7.917-7.24-2.942-2.828-13.8-2.828-13.8,15.275-6.447,14.48,5.883,14.48,5.883m-42.876,12.1s5.375,12.726,15.162,14.593c0,0,26.806,6.676,34.954-23.751s-28.164-24.1-28.164-24.1-26.525,8.2-21.952,33.254" transform="translate(-665.544 -409.721)" fill="#b8e26b"/>
    <path id="Trazado_387" data-name="Trazado 387" d="M2284.6-131.2c18.434-7.515,17.6,7.151,17.6,7.151-6.979,17.17-14.036,9.3-14.036,9.3-8.795-3.576-3.567-16.454-3.567-16.454" transform="translate(-676.737 -415.476)" fill="#df5b41"/>
    <path id="Trazado_388" data-name="Trazado 388" d="M1917.7-134.053c-5.882,14.478-11.651,7.917-11.651,7.917-7.24-2.942-2.828-13.8-2.828-13.8,15.268-6.447,14.48,5.883,14.48,5.883m-42.876,12.1s5.375,12.726,15.162,14.593c0,0,26.807,6.676,34.954-23.751s-28.164-24.1-28.164-24.1-26.525,8.2-21.952,33.254" transform="translate(-555.573 -408.832)" fill="#b8e26b"/>
    <path id="Trazado_389" data-name="Trazado 389" d="M1914.25-138.653c18.856-11.5,16.232,6.6,16.232,6.6-8.914,21.926-14.8,13.147-14.8,13.147-8.119-3.3-1.435-19.743-1.435-19.743" transform="translate(-566.649 -412.767)" fill="#df5b41"/>
  </g>
</svg>
