<svg xmlns="http://www.w3.org/2000/svg" width="895.925" height="937.712" viewBox="0 0 895.925 937.712">
  <path id="Trazado_391" data-name="Trazado 391" d="M551.812-27.666A5.673,5.673,0,0,0,546.144-22a5.675,5.675,0,0,0,5.668,5.668A5.674,5.674,0,0,0,557.479-22,5.673,5.673,0,0,0,551.812-27.666Zm0,14.841A9.188,9.188,0,0,1,542.633-22a9.186,9.186,0,0,1,9.179-9.173A9.186,9.186,0,0,1,560.99-22,9.188,9.188,0,0,1,551.812-12.825ZM286.6-538.183a4.406,4.406,0,0,0-4.4,4.4,4.4,4.4,0,0,0,4.4,4.4,4.406,4.406,0,0,0,4.4-4.4A4.408,4.408,0,0,0,286.6-538.183Zm0,12.313a7.92,7.92,0,0,1-7.914-7.909A7.922,7.922,0,0,1,286.6-541.7a7.922,7.922,0,0,1,7.913,7.917A7.92,7.92,0,0,1,286.6-525.869ZM170.277-667.143a7.93,7.93,0,0,0-7.921,7.922,7.931,7.931,0,0,0,7.921,7.923,7.93,7.93,0,0,0,7.92-7.923A7.93,7.93,0,0,0,170.277-667.143Zm0,19.357a11.445,11.445,0,0,1-11.433-11.435,11.45,11.45,0,0,1,11.433-11.435,11.45,11.45,0,0,1,11.432,11.435A11.445,11.445,0,0,1,170.277-647.786ZM22.865-394.506a7.93,7.93,0,0,0-7.92,7.922,7.931,7.931,0,0,0,7.92,7.923,7.931,7.931,0,0,0,7.921-7.923A7.931,7.931,0,0,0,22.865-394.506Zm0,19.357a11.444,11.444,0,0,1-11.432-11.435,11.449,11.449,0,0,1,11.432-11.435A11.45,11.45,0,0,1,34.3-386.584,11.445,11.445,0,0,1,22.865-375.149Zm861.628-80.985a7.932,7.932,0,0,0-7.921,7.923,7.931,7.931,0,0,0,7.921,7.923,7.931,7.931,0,0,0,7.919-7.923A7.931,7.931,0,0,0,884.492-456.134Zm0,19.357a11.445,11.445,0,0,1-11.433-11.433,11.45,11.45,0,0,1,11.433-11.435,11.45,11.45,0,0,1,11.432,11.435A11.445,11.445,0,0,1,884.492-436.778ZM759.518-135.333a7.931,7.931,0,0,0-7.92,7.923,7.931,7.931,0,0,0,7.92,7.923,7.931,7.931,0,0,0,7.921-7.923A7.931,7.931,0,0,0,759.518-135.333Zm0,19.357a11.444,11.444,0,0,1-11.432-11.433,11.45,11.45,0,0,1,11.432-11.435,11.451,11.451,0,0,1,11.433,11.435A11.446,11.446,0,0,1,759.518-115.977ZM816.927,66.384a7.923,7.923,0,1,0,7.921,7.923A7.931,7.931,0,0,0,816.927,66.384Zm0,19.358a11.435,11.435,0,1,1,11.432-11.435A11.444,11.444,0,0,1,816.927,85.742ZM628.945-717.815a7.931,7.931,0,0,0-7.921,7.923,7.93,7.93,0,0,0,7.921,7.922,7.93,7.93,0,0,0,7.919-7.922A7.931,7.931,0,0,0,628.945-717.815Zm0,19.357a11.445,11.445,0,0,1-11.433-11.433,11.45,11.45,0,0,1,11.433-11.435,11.45,11.45,0,0,1,11.432,11.435A11.445,11.445,0,0,1,628.945-698.458ZM401.362-634.123a7.93,7.93,0,0,0-7.921,7.922,7.931,7.931,0,0,0,7.921,7.923,7.93,7.93,0,0,0,7.92-7.923A7.93,7.93,0,0,0,401.362-634.123Zm0,19.357A11.445,11.445,0,0,1,389.929-626.2a11.45,11.45,0,0,1,11.433-11.435A11.45,11.45,0,0,1,412.794-626.2,11.445,11.445,0,0,1,401.362-614.766ZM11.432-123.9a7.931,7.931,0,0,0-7.921,7.922,7.931,7.931,0,0,0,7.921,7.923,7.931,7.931,0,0,0,7.92-7.923A7.931,7.931,0,0,0,11.432-123.9Zm0,19.357A11.444,11.444,0,0,1,0-115.977,11.449,11.449,0,0,1,11.432-127.41a11.45,11.45,0,0,1,11.432,11.433A11.445,11.445,0,0,1,11.432-104.542ZM153.354,54.951a7.923,7.923,0,1,0,7.921,7.922A7.93,7.93,0,0,0,153.354,54.951Zm0,19.357a11.435,11.435,0,1,1,11.432-11.435A11.445,11.445,0,0,1,153.354,74.307Zm343.4-19.357a7.923,7.923,0,1,0,7.921,7.922A7.931,7.931,0,0,0,496.755,54.951Zm0,19.357a11.435,11.435,0,1,1,11.432-11.435A11.444,11.444,0,0,1,496.755,74.307ZM671.717,32.081A7.923,7.923,0,1,0,679.638,40,7.93,7.93,0,0,0,671.717,32.081Zm0,19.357A11.434,11.434,0,1,1,683.15,40,11.444,11.444,0,0,1,671.717,51.438ZM302.837-333.9a5.286,5.286,0,0,0-5.282,5.281,5.286,5.286,0,0,0,5.282,5.282,5.286,5.286,0,0,0,5.282-5.282A5.286,5.286,0,0,0,302.837-333.9Zm0,14.075a8.806,8.806,0,0,1-8.794-8.794,8.806,8.806,0,0,1,8.794-8.793,8.806,8.806,0,0,1,8.793,8.793A8.806,8.806,0,0,1,302.837-319.826Zm31.2,224.938a3.886,3.886,0,0,0-3.882,3.883,3.887,3.887,0,0,0,3.882,3.884,3.888,3.888,0,0,0,3.882-3.884A3.887,3.887,0,0,0,334.037-94.888Zm0,11.28a7.4,7.4,0,0,1-7.393-7.4,7.406,7.406,0,0,1,7.393-7.4,7.406,7.406,0,0,1,7.393,7.4A7.4,7.4,0,0,1,334.037-83.608Zm-12.466-50.844h-5.9v-4.664c0-3.6-5.606-3.61-5.606,0v4.664H304.78c-3.607,0-3.613,5.6,0,5.6h5.283v5.907c0,3.6,5.606,3.61,5.606,0v-5.907h5.9C325.179-128.848,325.185-134.452,321.572-134.452ZM676.945-272.536h-5.9V-277.2c0-3.6-5.607-3.61-5.607,0v4.663h-5.282c-3.607,0-3.613,5.6,0,5.6h5.282v5.907c0,3.6,5.607,3.61,5.607,0v-5.907h5.9C680.552-266.932,680.559-272.536,676.945-272.536ZM563.916-545.463h-5.9v-4.66c0-3.607-5.606-3.613-5.606,0v4.66h-5.282c-3.607,0-3.613,5.606,0,5.606h5.282v5.9c0,3.61,5.606,3.617,5.606,0v-5.9h5.9C567.524-539.857,567.53-545.463,563.916-545.463ZM274.59-470.777h-5.9v-4.663c0-3.6-5.607-3.61-5.607,0v4.663H257.8c-3.607,0-3.614,5.606,0,5.606h5.282v5.9c0,3.61,5.607,3.618,5.607,0v-5.9h5.9C278.2-465.172,278.2-470.777,274.59-470.777ZM613.467-42.668h-5.9v-4.664c0-3.6-5.605-3.61-5.605,0v4.664h-5.283c-3.606,0-3.613,5.6,0,5.6h5.283v5.907c0,3.6,5.605,3.61,5.605,0v-5.907h5.9C617.074-37.064,617.079-42.668,613.467-42.668Zm275.868-94.855h-5.9v-4.663c0-3.6-5.607-3.61-5.607,0v4.663h-5.282c-3.607,0-3.614,5.606,0,5.606h5.282v5.906c0,3.6,5.607,3.61,5.607,0v-5.906h5.9C892.942-131.917,892.948-137.522,889.335-137.522ZM571.809,202.17h-5.9v-4.664c0-3.6-5.606-3.61-5.606,0v4.664h-5.283c-3.606,0-3.613,5.6,0,5.6H560.3v5.907c0,3.6,5.606,3.61,5.606,0v-5.907h5.9C575.416,207.775,575.421,202.17,571.809,202.17ZM368.162,169.6h-5.9v-4.664c0-3.6-5.606-3.61-5.606,0V169.6h-5.283c-3.606,0-3.613,5.6,0,5.6h5.283v5.907c0,3.6,5.606,3.61,5.606,0V175.2h5.9C371.77,175.2,371.775,169.6,368.162,169.6ZM220.858,38.1h-5.9V33.441c0-3.6-5.606-3.61-5.606,0V38.1h-5.283c-3.606,0-3.613,5.606,0,5.606h5.283v5.906c0,3.6,5.606,3.611,5.606,0V43.71h5.9C224.466,43.71,224.471,38.1,220.858,38.1Zm-114.5-234.69h-5.9v-4.664c0-3.6-5.606-3.61-5.606,0v4.664H89.561c-3.607,0-3.613,5.6,0,5.6h5.282v5.907c0,3.6,5.606,3.61,5.606,0v-5.907h5.9C109.961-190.982,109.967-196.586,106.354-196.586Zm0-316.9h-5.9v-4.663c0-3.6-5.606-3.611-5.606,0v4.663H89.561c-3.607,0-3.613,5.6,0,5.6h5.282v5.907c0,3.6,5.606,3.61,5.606,0v-5.907h5.9C109.961-507.885,109.967-513.49,106.354-513.49ZM549.6-651.852h-5.9v-4.663c0-3.6-5.606-3.61-5.606,0v4.663h-5.283c-3.606,0-3.613,5.605,0,5.605h5.283v5.907c0,3.6,5.606,3.61,5.606,0v-5.907h5.9C553.208-646.247,553.214-651.852,549.6-651.852Z" transform="translate(0 721.326)" fill="#f2ed6e"/>
</svg>
