<svg xmlns="http://www.w3.org/2000/svg" width="895.924" height="937.712" viewBox="0 0 895.924 937.712">
  <path id="Trazado_391" data-name="Trazado 391" d="M344.112-477.273a5.673,5.673,0,0,0,5.668-5.661,5.674,5.674,0,0,0-5.668-5.668,5.674,5.674,0,0,0-5.667,5.668A5.673,5.673,0,0,0,344.112-477.273Zm0-14.841a9.188,9.188,0,0,1,9.179,9.179,9.186,9.186,0,0,1-9.179,9.173,9.186,9.186,0,0,1-9.178-9.173A9.188,9.188,0,0,1,344.112-492.114ZM609.321,33.243a4.4,4.4,0,1,0-4.4-4.4A4.406,4.406,0,0,0,609.321,33.243Zm0-12.313a7.913,7.913,0,1,1-7.913,7.909A7.92,7.92,0,0,1,609.321,20.93ZM725.647,162.2a7.923,7.923,0,1,0-7.919-7.922A7.93,7.93,0,0,0,725.647,162.2Zm0-19.357a11.435,11.435,0,1,1-11.432,11.435A11.445,11.445,0,0,1,725.647,142.846ZM873.06-110.433a7.93,7.93,0,0,0,7.92-7.922,7.931,7.931,0,0,0-7.92-7.923,7.931,7.931,0,0,0-7.921,7.923A7.931,7.931,0,0,0,873.06-110.433Zm0-19.357a11.444,11.444,0,0,1,11.432,11.435,11.449,11.449,0,0,1-11.432,11.435,11.45,11.45,0,0,1-11.432-11.435A11.445,11.445,0,0,1,873.06-129.79ZM11.432-48.805a7.932,7.932,0,0,0,7.921-7.923,7.931,7.931,0,0,0-7.921-7.923,7.931,7.931,0,0,0-7.919,7.923A7.931,7.931,0,0,0,11.432-48.805Zm0-19.357A11.445,11.445,0,0,1,22.865-56.728,11.45,11.45,0,0,1,11.432-45.294,11.45,11.45,0,0,1,0-56.728,11.445,11.445,0,0,1,11.432-68.162ZM136.406-369.606a7.931,7.931,0,0,0,7.92-7.923,7.931,7.931,0,0,0-7.92-7.923,7.931,7.931,0,0,0-7.921,7.923A7.931,7.931,0,0,0,136.406-369.606Zm0-19.357a11.444,11.444,0,0,1,11.432,11.433,11.45,11.45,0,0,1-11.432,11.435,11.451,11.451,0,0,1-11.433-11.435A11.446,11.446,0,0,1,136.406-388.963ZM79-571.323a7.931,7.931,0,0,0,7.921-7.923A7.931,7.931,0,0,0,79-587.17a7.932,7.932,0,0,0-7.921,7.923A7.932,7.932,0,0,0,79-571.323Zm0-19.358A11.444,11.444,0,0,1,90.43-579.247,11.449,11.449,0,0,1,79-567.812a11.45,11.45,0,0,1-11.432-11.435A11.445,11.445,0,0,1,79-590.681ZM266.979,212.875a7.923,7.923,0,1,0-7.919-7.923A7.931,7.931,0,0,0,266.979,212.875Zm0-19.357a11.434,11.434,0,1,1-11.432,11.433A11.445,11.445,0,0,1,266.979,193.518Zm227.583-64.335a7.923,7.923,0,1,0-7.92-7.922A7.93,7.93,0,0,0,494.562,129.184Zm0-19.357a11.435,11.435,0,1,1-11.432,11.435A11.445,11.445,0,0,1,494.562,109.827Zm389.93-490.868a7.931,7.931,0,0,0,7.921-7.922,7.931,7.931,0,0,0-7.921-7.923,7.931,7.931,0,0,0-7.92,7.923A7.931,7.931,0,0,0,884.492-381.041Zm0-19.357a11.444,11.444,0,0,1,11.432,11.435,11.449,11.449,0,0,1-11.432,11.433,11.45,11.45,0,0,1-11.432-11.433A11.445,11.445,0,0,1,884.492-400.4ZM742.571-559.89a7.93,7.93,0,0,0,7.919-7.922,7.93,7.93,0,0,0-7.919-7.923,7.931,7.931,0,0,0-7.921,7.923A7.93,7.93,0,0,0,742.571-559.89Zm0-19.357A11.445,11.445,0,0,1,754-567.812a11.45,11.45,0,0,1-11.432,11.435,11.45,11.45,0,0,1-11.432-11.435A11.445,11.445,0,0,1,742.571-579.247Zm-343.4,19.357a7.931,7.931,0,0,0,7.921-7.922,7.931,7.931,0,0,0-7.921-7.923,7.931,7.931,0,0,0-7.921,7.923A7.931,7.931,0,0,0,399.169-559.89Zm0-19.357A11.444,11.444,0,0,1,410.6-567.812a11.449,11.449,0,0,1-11.432,11.435,11.45,11.45,0,0,1-11.432-11.435A11.445,11.445,0,0,1,399.169-579.247ZM224.207-537.021a7.93,7.93,0,0,0,7.921-7.922,7.931,7.931,0,0,0-7.921-7.923,7.932,7.932,0,0,0-7.921,7.923A7.931,7.931,0,0,0,224.207-537.021Zm0-19.357a11.444,11.444,0,0,1,11.432,11.435,11.449,11.449,0,0,1-11.432,11.433,11.45,11.45,0,0,1-11.432-11.433A11.445,11.445,0,0,1,224.207-556.377ZM593.088-171.039a5.286,5.286,0,0,0,5.282-5.281,5.286,5.286,0,0,0-5.282-5.282,5.286,5.286,0,0,0-5.282,5.282A5.286,5.286,0,0,0,593.088-171.039Zm0-14.075a8.806,8.806,0,0,1,8.794,8.794,8.806,8.806,0,0,1-8.794,8.793,8.806,8.806,0,0,1-8.793-8.793A8.806,8.806,0,0,1,593.088-185.114Zm-31.2-224.938a3.886,3.886,0,0,0,3.882-3.883,3.887,3.887,0,0,0-3.882-3.884,3.888,3.888,0,0,0-3.882,3.884A3.887,3.887,0,0,0,561.887-410.051Zm0-11.28a7.4,7.4,0,0,1,7.393,7.4,7.406,7.406,0,0,1-7.393,7.4,7.406,7.406,0,0,1-7.393-7.4A7.4,7.4,0,0,1,561.887-421.331Zm12.466,50.844h5.9v4.664c0,3.6,5.605,3.61,5.605,0v-4.664h5.283c3.607,0,3.613-5.6,0-5.6h-5.283V-382c0-3.6-5.605-3.61-5.605,0v5.907h-5.9C570.745-376.092,570.74-370.487,574.353-370.487ZM218.98-232.4h5.9v4.663c0,3.6,5.607,3.61,5.607,0V-232.4h5.282c3.607,0,3.613-5.6,0-5.6H230.49v-5.907c0-3.6-5.607-3.61-5.607,0v5.907h-5.9C215.372-238.007,215.366-232.4,218.98-232.4ZM332.008,40.523h5.9v4.66c0,3.607,5.606,3.613,5.606,0v-4.66H348.8c3.607,0,3.613-5.606,0-5.606h-5.282v-5.9c0-3.61-5.606-3.617-5.606,0v5.9h-5.9C328.4,34.918,328.394,40.523,332.008,40.523ZM621.334-34.162h5.9V-29.5c0,3.6,5.607,3.61,5.607,0v-4.663h5.282c3.607,0,3.614-5.606,0-5.606h-5.282v-5.9c0-3.61-5.607-3.618-5.607,0v5.9h-5.9C617.727-39.768,617.72-34.162,621.334-34.162ZM282.458-462.272h5.9v4.664c0,3.6,5.605,3.61,5.605,0v-4.664h5.283c3.606,0,3.613-5.6,0-5.6h-5.283v-5.907c0-3.6-5.605-3.61-5.605,0v5.907h-5.9C278.851-467.876,278.845-462.272,282.458-462.272ZM6.59-367.417h5.9v4.663c0,3.6,5.607,3.61,5.607,0v-4.663h5.282c3.607,0,3.614-5.606,0-5.606H18.1v-5.906c0-3.6-5.607-3.61-5.607,0v5.906H6.59C2.982-373.022,2.977-367.417,6.59-367.417ZM324.116-707.109h5.9v4.664c0,3.6,5.606,3.61,5.606,0v-4.664h5.283c3.606,0,3.613-5.6,0-5.6h-5.283v-5.907c0-3.6-5.606-3.61-5.606,0v5.907h-5.9C320.509-712.714,320.5-707.109,324.116-707.109Zm203.646,32.573h5.9v4.664c0,3.6,5.606,3.61,5.606,0v-4.664h5.283c3.606,0,3.613-5.6,0-5.6h-5.283v-5.907c0-3.6-5.606-3.61-5.606,0v5.907h-5.9C524.155-680.141,524.15-674.536,527.762-674.536Zm147.3,131.493h5.9v4.663c0,3.6,5.606,3.61,5.606,0v-4.663h5.283c3.606,0,3.613-5.606,0-5.606h-5.283v-5.906c0-3.6-5.606-3.611-5.606,0v5.906h-5.9C671.459-548.649,671.454-543.043,675.066-543.043Zm114.5,234.69h5.9v4.664c0,3.6,5.606,3.61,5.606,0v-4.664h5.282c3.607,0,3.613-5.6,0-5.6h-5.282v-5.907c0-3.6-5.606-3.61-5.606,0v5.907h-5.9C785.963-313.958,785.958-308.353,789.571-308.353Zm0,316.9h5.9v4.663c0,3.6,5.606,3.611,5.606,0V8.55h5.282c3.607,0,3.613-5.6,0-5.6h-5.282V-2.961c0-3.6-5.606-3.61-5.606,0V2.946h-5.9C785.963,2.946,785.958,8.55,789.571,8.55ZM346.324,146.913h5.9v4.663c0,3.6,5.606,3.61,5.606,0v-4.663h5.283c3.606,0,3.613-5.605,0-5.605h-5.283V135.4c0-3.6-5.606-3.61-5.606,0v5.907h-5.9C342.716,141.307,342.711,146.913,346.324,146.913Z" transform="translate(0 721.326)" fill="#f2ed6e"/>
</svg>
